<?xml version="1.0" standalone="no"?>
<!DOCTYPE svg PUBLIC "-//W3C//DTD SVG 20010904//EN"
 "http://www.w3.org/TR/2001/REC-SVG-20010904/DTD/svg10.dtd">
<svg version="1.0" xmlns="http://www.w3.org/2000/svg"
 width="500.000000pt" height="500.000000pt" viewBox="0 0 500.000000 500.000000"
 preserveAspectRatio="xMidYMid meet">
<metadata>
Created by potrace 1.14, written by Peter Selinger 2001-2017
</metadata>
<g transform="translate(0.000000,500.000000) scale(0.100000,-0.100000)"
fill="#000000" stroke="none">
<path d="M0 2500 l0 -2500 2500 0 2500 0 0 2500 0 2500 -2500 0 -2500 0 0
-2500z m1737 375 c101 -176 187 -323 191 -327 4 -4 138 141 297 322 l290 329
148 0 149 1 -6 -27 c-3 -16 -53 -329 -111 -698 -58 -368 -108 -680 -110 -692
-5 -23 -8 -23 -158 -23 l-153 0 73 458 c40 251 72 462 70 469 -1 6 -94 -94
-206 -223 l-204 -234 -126 0 -126 1 -129 224 c-72 124 -133 225 -136 225 -3 0
-36 -197 -74 -437 -37 -241 -70 -448 -73 -460 -5 -23 -8 -23 -160 -23 l-155 0
6 28 c3 15 53 333 111 707 59 374 108 686 111 693 3 10 38 12 150 10 l147 -3
184 -320z m1986 310 c303 -64 455 -363 377 -743 -64 -313 -247 -550 -506 -653
-58 -23 -66 -24 -440 -27 l-380 -3 106 673 c59 370 110 694 114 721 l7 47 327
0 c245 0 344 -4 395 -15z"/>
<path d="M3265 2908 c-4 -14 -135 -848 -135 -861 0 -5 82 -7 183 -5 169 3 186
5 232 28 142 69 245 255 261 475 15 191 -51 322 -180 360 -65 20 -355 21 -361
3z"/>
</g>
</svg>
